<svg width="100" height="100" viewBox="0 0 100 100" fill="none" xmlns="http://www.w3.org/2000/svg">
<rect width="100" height="100" fill="#00A7EF"/>
<path d="M22.1172 52.1499C24.5391 52.1529 26.8752 52.1469 29.318 52.1499C29.2233 63.8495 28.8486 75.6407 26.3131 87.2685C25.9314 87.2835 25.5636 87.2516 25.1241 87.2685C25.0394 86.9925 24.9427 86.7453 24.8879 86.4891C23.7846 81.3305 23.0591 76.1211 22.6604 70.8598C22.188 64.6338 22.1182 58.4108 22.1182 52.1499H22.1172ZM19.1961 58.4885C19.5429 58.4885 19.825 58.2075 19.825 57.8607C19.825 55.0491 19.825 43.5051 19.83 37.7166C19.831 36.5216 19.9904 36.3851 21.1714 36.2525C21.2382 36.2445 21.2432 36.2166 21.2432 36.2166V32.5889C21.2432 32.5889 20.2326 32.5968 19.7173 32.6207C18.6649 32.6716 18.03 33.3403 18.0021 34.4157C17.9961 34.6569 18.0041 34.8981 18.0101 35.1403C18.1147 39.6211 18.2144 44.102 18.327 48.5819C18.3898 51.0935 18.5224 56.1355 18.5682 57.8796C18.5772 58.2204 18.8562 58.4905 19.1961 58.4905V58.4885ZM26.1287 88.8293L26.2164 87.8715H25.3075L25.3952 88.8293C25.4121 89.0196 25.5716 89.1651 25.763 89.1651C25.9533 89.1651 26.1128 89.0196 26.1307 88.8293H26.1287ZM27.523 25.7399C27.523 25.3343 27.1941 25.0064 26.7895 25.0064H24.6607C24.255 25.0064 23.9271 25.3353 23.9271 25.7399V29.1166H27.523V25.7399ZM28.1469 30.6016H23.2883C22.6405 30.6016 22.1143 31.1268 22.1143 31.7756V50.8214H25.0125V33.7101C25.0125 33.3214 25.3284 33.0054 25.7171 33.0054C26.1058 33.0054 26.4217 33.3214 26.4217 33.7101V50.8214H29.32V31.7756C29.32 31.1278 28.7947 30.6016 28.1459 30.6016H28.1469ZM73.4632 53.913V52.4399H36.3184C36.3124 52.9273 36.3064 53.4196 36.2994 53.913H73.4641H73.4632ZM73.4492 57.5427V56.0518H36.2616C36.2516 56.5461 36.2406 57.0434 36.2287 57.5427H73.4492ZM73.4711 72.2342H35.3855C35.3367 72.7246 35.2859 73.2159 35.232 73.7072H73.4711V72.2342ZM73.4711 50.3251V48.8201H36.3403V48.9716C36.3403 49.2028 36.3104 49.4271 36.2546 49.6404C36.3114 49.8606 36.3403 50.0899 36.3383 50.3211C36.3383 50.3221 36.3383 50.3231 36.3383 50.3251H73.4711ZM36.3403 37.7584H73.4582V36.2495H36.3403V37.7584ZM73.4841 75.8351H34.9839C34.9221 76.3284 34.8573 76.8227 34.7905 77.3161H73.4851V75.8351H73.4841ZM73.4841 68.6024H35.7005C35.6626 69.1038 35.6227 69.6061 35.5799 70.1094H73.4851V68.6024H73.4841ZM83 20.1717C83 19.1781 82.7837 18.2631 82.1957 17.4559C81.227 16.1273 79.8875 15.5991 78.2719 15.6051C74.091 15.6211 69.9101 15.6131 65.7292 15.5991C65.5409 15.5991 65.2598 15.4945 65.1811 15.351C64.8472 14.746 64.3658 14.4739 63.6841 14.4809C62.4403 14.4939 61.1955 14.4749 59.9507 14.4919C59.6477 14.4958 59.4893 14.4261 59.3657 14.1201C58.3312 11.5717 55.998 10 53.2902 10C50.5833 10 48.2551 11.5727 47.2156 14.1241C47.105 14.3972 46.9764 14.4968 46.6794 14.4929C45.3858 14.4769 44.0912 14.4899 42.7975 14.4849C42.2125 14.4829 41.7331 14.7171 41.4959 15.2363C41.3335 15.5921 41.1172 15.6161 40.8013 15.6151C36.5705 15.6091 32.3398 15.6021 28.109 15.6151C25.4351 15.622 23.5873 17.5037 23.5873 20.1757C23.5873 20.2893 23.5873 21.5331 23.5873 21.6467H28.0383V20.079H41.2946C41.2946 20.681 41.2946 21.268 41.2946 21.856C41.2946 22.1211 41.2866 22.3872 41.2956 22.6523C41.3285 23.5553 41.9095 24.1463 42.8145 24.1473C49.7999 24.1533 56.7844 24.1533 63.7698 24.1473C64.6738 24.1473 65.2648 23.5543 65.2837 22.6504C65.3017 21.8062 65.2877 20.961 65.2877 20.09H78.537V84.6783H30.9764C30.8488 86.1623 30.5339 87.9692 30.1352 89.1651C45.5423 89.1651 62.9974 89.1651 78.4045 89.1651C81.1502 89.1651 82.992 87.3333 82.994 84.5846C82.996 80.9837 82.994 77.3838 82.994 73.783C82.994 55.9132 82.993 38.0425 82.999 20.1727L83 20.1717ZM53.2732 19.6844C51.5321 19.6774 50.1099 18.2452 50.1218 16.512C50.1338 14.7729 51.563 13.3676 53.3111 13.3766C55.0542 13.3856 56.4784 14.8198 56.4625 16.5509C56.4465 18.292 55.0223 19.6913 53.2722 19.6844H53.2732ZM36.3413 29.9258V30.5477H73.4761V29.0448H36.2357C36.3024 29.3278 36.3403 29.6228 36.3403 29.9258H36.3413ZM36.3413 34.1546H73.4791V32.6427H36.3403V34.1546H36.3413Z" fill="white"/>
</svg>
