<svg width="100" height="100" viewBox="0 0 100 100" fill="none" xmlns="http://www.w3.org/2000/svg">
<rect width="100" height="100" rx="10" fill="#019329"/>
<path d="M85 66.8383H15L18.261 62.6628H81.739L85 66.8383ZM85 68.2014H15V71.5257H85V68.2014ZM70.7078 37.5293C67.5561 37.5293 64.9967 40.0829 64.9967 43.2404C64.9967 46.3979 67.5503 48.9515 70.7078 48.9515C73.8653 48.9515 76.4189 46.3979 76.4189 43.2404C76.4189 40.0829 73.8653 37.5293 70.7078 37.5293ZM71.9846 55.0365L70.7078 58.7001L69.431 55.0365L70.7078 50.5619L71.9846 55.0365ZM80.5024 55.5023V61.2135H60.9075V55.5023C60.9075 52.2586 62.8572 49.4749 65.6524 48.2499L70.3225 60.0632H71.1104L75.8956 48.3131C78.616 49.5669 80.5082 52.3103 80.5082 55.5081L80.5024 55.5023ZM49.9971 37.5235C46.8454 37.5235 44.286 40.0772 44.286 43.2347C44.286 46.3922 46.8396 48.9458 49.9971 48.9458C53.1546 48.9458 55.7082 46.3922 55.7082 43.2347C55.7082 40.0772 53.1546 37.5235 49.9971 37.5235ZM51.2739 55.0307L49.9971 58.6944L48.7203 55.0307L49.9971 50.5562L51.2739 55.0307ZM59.7917 55.4966V61.2077H40.1968V55.4966C40.1968 52.2528 42.1465 49.4691 44.9417 48.2441L49.6118 60.0574H50.3997L55.1849 48.3074C57.9053 49.5612 59.7975 52.3046 59.7975 55.5023L59.7917 55.4966ZM29.2922 37.5235C26.1404 37.5235 23.5811 40.0772 23.5811 43.2347C23.5811 46.3922 26.1347 48.9458 29.2922 48.9458C32.4497 48.9458 35.0033 46.3922 35.0033 43.2347C35.0033 40.0772 32.4497 37.5235 29.2922 37.5235ZM30.569 55.0307L29.2922 58.6944L28.0154 55.0307L29.2922 50.5562L30.569 55.0307ZM39.0868 55.4966V61.2077H19.4976V55.4966C19.4976 52.2528 21.4473 49.4691 24.2425 48.2441L28.9126 60.0574H29.7005L34.4857 48.3074C37.2061 49.5612 39.0983 52.3046 39.0983 55.5023L39.0868 55.4966ZM39.3398 29C36.3261 29 33.8875 31.4443 33.8875 34.4523C33.8875 37.4603 36.3319 39.9046 39.3398 39.9046C42.3478 39.9046 44.7921 37.4603 44.7921 34.4523C44.7921 31.4443 42.3593 29.0058 39.3513 29.0058L39.3398 29ZM60.896 29C57.8823 29 55.4437 31.4443 55.4437 34.4523C55.4437 37.4603 57.888 39.9046 60.896 39.9046C63.904 39.9046 66.3483 37.4603 66.3483 34.4523C66.3483 31.4443 63.9155 29.0058 60.9075 29.0058L60.896 29Z" fill="white"/>
</svg>
