<svg width="51" height="67" viewBox="0 0 51 67" fill="none" xmlns="http://www.w3.org/2000/svg">
<path d="M11.2395 16.3092C10.1762 16.3092 9.31348 17.165 9.31348 18.2216C9.31348 19.2782 10.1754 20.134 11.2395 20.134C12.3037 20.134 13.1655 19.2782 13.1655 18.2216C13.1655 17.165 12.3037 16.3092 11.2395 16.3092ZM11.6705 22.1743L11.2395 23.4012L10.8086 22.1743L11.2395 20.6762L11.6705 22.1743ZM14.5446 22.331V24.2434H7.93359V22.331C7.93359 21.2448 8.59154 20.3119 9.53365 19.901L11.109 23.8579H11.3743L12.9889 19.9221C13.9071 20.3424 14.5454 21.2617 14.5454 22.331H14.5446Z" fill="#003C75"/>
<path d="M11.2395 33.0592C10.1762 33.0592 9.31348 33.915 9.31348 34.9716C9.31348 36.0282 10.1754 36.884 11.2395 36.884C12.3037 36.884 13.1655 36.0282 13.1655 34.9716C13.1655 33.915 12.3037 33.0592 11.2395 33.0592ZM11.6705 38.9243L11.2395 40.1512L10.8086 38.9243L11.2395 37.4262L11.6705 38.9243ZM14.5446 39.081V40.9934H7.93359V39.081C7.93359 37.9948 8.59154 37.0619 9.53365 36.6509L11.109 40.6079H11.3743L12.9889 36.6721C13.9071 37.0924 14.5454 38.0117 14.5454 39.081H14.5446Z" fill="#003C75"/>
<path d="M11.2395 49.8092C10.1762 49.8092 9.31348 50.665 9.31348 51.7216C9.31348 52.7782 10.1754 53.634 11.2395 53.634C12.3037 53.634 13.1655 52.7782 13.1655 51.7216C13.1655 50.665 12.3037 49.8092 11.2395 49.8092ZM11.6705 55.6743L11.2395 56.9012L10.8086 55.6743L11.2395 54.1762L11.6705 55.6743ZM14.5446 55.831V57.7434H7.93359V55.831C7.93359 54.7448 8.59154 53.8119 9.53365 53.401L11.109 57.3579H11.3743L12.9889 53.4221C13.9071 53.8424 14.5454 54.7617 14.5454 55.831H14.5446Z" fill="#003C75"/>
<path d="M50.25 8.71014C50.25 7.87065 50.0671 7.09767 49.5697 6.41564C48.7504 5.29322 47.6175 4.84695 46.251 4.852C42.848 4.86463 39.4442 4.85958 36.0412 4.84863V8.63942H46.477V63.2075H3.76462V8.63099H14.3361V4.85958C10.8319 4.85453 7.32777 4.84947 3.82447 4.85958C1.56283 4.86632 0 6.45521 0 8.71267C0 17.7964 0 26.8801 0 35.9647C0 45.0207 0 54.0766 0.0016859 63.1325C0.0016859 65.454 1.56199 67 3.886 67C18.0451 66.9991 32.2041 66.9991 46.364 67C48.6863 67 50.2441 65.4523 50.2458 63.13C50.2475 60.0878 50.2458 57.0464 50.2458 54.0042C50.2458 38.9067 50.2449 23.8084 50.25 8.71099V8.71014Z" fill="#003C75"/>
<path d="M42.3156 19.8356V21.1579H19.3945V19.8356H42.3147H42.3156Z" fill="#424242"/>
<path d="M18.9531 24.2434V22.921H33.4992V24.2434H18.9531Z" fill="#424242"/>
<path d="M18.9531 40.9934V39.671H33.4992V40.9934H18.9531Z" fill="#424242"/>
<path d="M42.3147 50.25V51.5724H19.3945V50.25H42.3156H42.3147Z" fill="#424242"/>
<path d="M18.9531 54.6579V53.3356H42.315V54.6579H18.9531Z" fill="#424242"/>
<path d="M42.315 16.75V18.0724H18.9531V16.75H42.315Z" fill="#424242"/>
<path d="M42.3156 33.5V34.8224H19.3945V33.5H42.3147H42.3156Z" fill="#424242"/>
<path d="M18.9531 37.9079V36.5856H42.315V37.9079H18.9531Z" fill="#424242"/>
<path d="M33.9406 56.421V57.7434H19.3945V56.421H33.9406Z" fill="#424242"/>
<path d="M14.9863 8.47621H15.0023C15.0023 8.98246 15.0023 9.47613 15.0023 9.97064C15.0023 10.1936 14.9956 10.4174 15.0031 10.6403C15.0309 11.3997 15.521 11.8967 16.2844 11.8975C22.1769 11.9026 28.0687 11.9026 33.9612 11.8975C34.7237 11.8975 35.2223 11.3988 35.2383 10.6386C35.2534 9.92873 35.2416 9.21798 35.2416 8.48543H35.2626V4.60731C35.213 4.57714 35.1718 4.5411 35.15 4.50171C34.8683 3.99295 34.4623 3.76413 33.8872 3.77C32.838 3.7809 31.788 3.76497 30.7379 3.77922C30.4823 3.78257 30.3487 3.7239 30.2444 3.46659C29.3726 1.32176 27.4045 0 25.1211 0C22.8377 0 20.8738 1.3226 19.997 3.46827C19.9037 3.69792 19.7952 3.78173 19.5447 3.77838C18.4534 3.76497 17.3613 3.77587 16.2701 3.77168C15.7766 3.77 15.3722 3.96697 15.1721 4.40364C15.1183 4.52182 15.0569 4.59558 14.9863 4.64251V8.47538V8.47621ZM25.1379 2.84049C26.6083 2.84803 27.8097 4.05413 27.7963 5.51C27.7828 6.97425 26.5814 8.15101 25.1051 8.14515C23.6364 8.13928 22.4367 6.93486 22.4468 5.47731C22.4569 4.01474 23.6625 2.83295 25.1371 2.84049H25.1379Z" fill="#FDBC40"/>
</svg>
