<svg width="100" height="100" viewBox="0 0 100 100" fill="none" xmlns="http://www.w3.org/2000/svg">
<rect width="100" height="100" fill="#E4A400"/>
<path d="M30.8239 74.1256C29.3805 74.1256 27.9372 74.1265 26.4939 74.1256C26.0155 74.1256 25.871 73.991 25.871 73.521C25.8676 70.6348 25.8676 67.7486 25.871 64.8624C25.871 64.399 26.0238 64.247 26.4947 64.2462C29.3673 64.2421 32.2407 64.2421 35.1134 64.2462C35.6107 64.2462 35.7602 64.3974 35.7611 64.8847C35.7635 67.7577 35.7644 70.6298 35.7611 73.5028C35.7611 73.991 35.6148 74.1265 35.1134 74.1273C33.6841 74.129 32.254 74.1273 30.8247 74.1273L30.8239 74.1256ZM34.8936 67.2497C34.6267 66.9779 34.3607 66.7062 34.0633 66.403C32.7505 67.7197 31.4526 69.0215 30.0968 70.3804C29.5623 69.8137 29.0468 69.2677 28.5254 68.7143C28.2247 69.0149 27.957 69.2834 27.7158 69.5246C28.5387 70.3482 29.3591 71.1684 30.1637 71.973C31.7145 70.4242 33.2892 68.8522 34.8936 67.2489V67.2497ZM35.7619 36.4053C35.7619 37.8212 35.7635 39.237 35.7619 40.6528C35.7619 41.1972 35.6223 41.3376 35.082 41.3376C32.2366 41.3393 29.3904 41.3393 26.5451 41.3376C26.0007 41.3376 25.871 41.2063 25.871 40.6512C25.8693 37.8055 25.8693 34.9606 25.871 32.1149C25.871 31.5862 26.0023 31.4541 26.5261 31.4532C29.3855 31.4516 32.2449 31.4516 35.1043 31.4532C35.6181 31.4532 35.7611 31.597 35.7627 32.1165C35.7652 33.5464 35.7635 34.9755 35.7635 36.4053H35.7619ZM28.5643 35.9361C28.2305 36.2377 27.948 36.4946 27.7406 36.6821C28.5709 37.5329 29.3814 38.3631 30.1299 39.1304C31.6963 37.5684 33.2776 35.9915 34.8134 34.46C34.5887 34.2081 34.3359 33.9239 34.0178 33.5679C32.7092 34.8945 31.4195 36.2021 30.096 37.5428C29.5739 36.996 29.0625 36.4599 28.5634 35.937L28.5643 35.9361ZM30.8073 57.7246C29.3781 57.7246 27.9488 57.7263 26.5203 57.7238C25.9899 57.723 25.871 57.6015 25.8701 57.063C25.8685 54.2189 25.8685 51.374 25.8701 48.53C25.8701 47.9757 25.9883 47.8592 26.5534 47.8584C29.4119 47.8567 32.2697 47.8567 35.1282 47.8584C35.6165 47.8584 35.7611 48.0038 35.7611 48.501C35.7635 51.3591 35.7635 54.2172 35.7611 57.0753C35.7611 57.5933 35.6248 57.7221 35.0952 57.7221C33.6659 57.7238 32.2366 57.7221 30.8082 57.7238L30.8073 57.7246ZM30.096 53.9992C29.5392 53.4185 29.0187 52.8758 28.5254 52.3603C28.2429 52.6478 27.976 52.9187 27.7274 53.1715C28.5254 53.9694 29.3392 54.7831 30.1067 55.5513C31.674 53.9851 33.2627 52.3983 34.8374 50.8247C34.6077 50.5851 34.3442 50.3117 34.0525 50.0077C32.7546 51.317 31.4683 52.6147 30.096 53.9992ZM38.58 49.1767V50.4241H57.3217C57.9744 50.0391 58.6535 49.693 59.3557 49.3923V49.1767H38.58ZM38.58 37.0216H59.3582V35.7685H38.58V37.0216ZM38.5775 65.5728V66.8218H48.5411C48.5221 66.4881 48.5122 66.1527 48.5122 65.8149C48.5122 65.7339 48.5139 65.6538 48.5155 65.5728H38.5775ZM38.5742 53.3978H53.5494C53.9641 52.9699 54.4004 52.5619 54.8556 52.1769H38.5742V53.3978ZM49.4632 71.5674H38.5849V72.7949H49.9332C49.7622 72.3926 49.6053 71.9837 49.4632 71.5674ZM54.2269 78.896H21.6897V25.3537H32.6786C32.6786 25.8527 32.6786 26.3392 32.6786 26.8266C32.6786 27.0463 32.672 27.2669 32.6794 27.4866C32.7067 28.235 33.1884 28.7248 33.9385 28.7256C39.7292 28.7306 45.519 28.7306 51.3096 28.7256C52.059 28.7256 52.5489 28.2341 52.5646 27.4849C52.5795 26.7853 52.5679 26.0848 52.5679 25.3628H63.5511V48.1772C64.4714 48.0302 65.4141 47.9534 66.3749 47.9534C66.6666 47.9534 66.9565 47.9608 67.2449 47.9749C67.2449 40.4604 67.2465 32.9459 67.249 25.4314C67.249 24.6078 67.0697 23.8495 66.5823 23.1804C65.7792 22.0793 64.6689 21.6415 63.3296 21.6465C59.8638 21.6597 56.398 21.6531 52.9323 21.6415C52.7761 21.6415 52.5431 21.5548 52.4779 21.4358C52.2011 20.9344 51.802 20.7089 51.2369 20.7147C50.2059 20.7254 49.174 20.7097 48.1421 20.7238C47.8909 20.7271 47.7596 20.6693 47.6571 20.4157C46.8004 18.3027 44.8663 17 42.6224 17C40.3786 17 38.4486 18.3035 37.5869 20.4182C37.4952 20.6445 37.3886 20.7271 37.1424 20.7238C36.0701 20.7106 34.9969 20.7213 33.9245 20.7172C33.4395 20.7155 33.0421 20.9096 32.8455 21.34C32.7108 21.6349 32.5316 21.6547 32.2697 21.6539C28.7626 21.649 25.2555 21.6432 21.7483 21.6539C19.5317 21.6605 18 23.2193 18 25.4339C18 34.3452 18 43.2565 18 52.1687C18 61.0527 18 69.9368 18.0017 78.82C18.0017 81.0974 19.5309 82.614 21.8087 82.614C34.6424 82.614 47.4762 82.614 60.3108 82.614C58.0322 81.7888 55.9684 80.5134 54.2269 78.8952V78.896ZM42.639 19.7995C44.0839 19.8069 45.2645 20.9956 45.2513 22.4304C45.2381 23.8735 44.0575 25.0332 42.6067 25.0275C41.1634 25.0217 39.9845 23.8347 39.9944 22.3982C40.0043 20.9567 41.189 19.792 42.6381 19.7995H42.639ZM38.5758 34.0313H59.3566V32.7856H38.5758V34.0313ZM38.5758 40.0085H59.3483V38.7579H38.5758V40.0085ZM38.5717 56.4054H51.1981C51.4617 55.9817 51.7426 55.5686 52.04 55.1697H38.5725V56.4054H38.5717ZM38.5643 69.803H48.9617C48.87 69.4007 48.7915 68.9935 48.727 68.5821H38.5651V69.803H38.5643ZM66.3757 82.4356C57.2093 82.4356 49.7515 74.9789 49.7515 65.814C49.7515 56.6491 57.2093 49.1924 66.3757 49.1924C75.5421 49.1924 83 56.6491 83 65.814C83 74.9789 75.5421 82.4356 66.3757 82.4356ZM66.3757 52.3314C58.9402 52.3314 52.8909 58.3797 52.8909 65.814C52.8909 73.2484 58.9402 79.2967 66.3757 79.2967C73.8113 79.2967 79.8605 73.2484 79.8605 65.814C79.8605 58.3797 73.8113 52.3314 66.3757 52.3314ZM67.7389 65.814V56.232C67.7389 55.4794 67.1284 54.869 66.3757 54.869C65.6231 54.869 65.0126 55.4794 65.0126 56.232V64.4511H60.5504C59.7978 64.4511 59.1872 65.0615 59.1872 65.814C59.1872 66.5666 59.7978 67.177 60.5504 67.177H66.3757C67.1284 67.177 67.7389 66.5666 67.7389 65.814Z" fill="white"/>
</svg>
