              <svg width="100" height="100" viewBox="0 0 100 100" fill="none"
                xmlns="http://www.w3.org/2000/svg">
                <rect rx="10" width="100" height="100" fill="#019329" />
                <path
                  d="M31.0027 24.8219C30.3793 23.7008 30.1004 22.3937 30.2097 21.1141C30.3136 19.8289 30.7949 18.593 31.5933 17.5648C32.3918 16.5367 33.4691 15.793 34.6996 15.3719C35.0332 15.257 35.3613 15.1148 35.6894 15H37.866C40.4418 15.7492 42.4379 17.1219 43.1816 19.8562C43.5316 21.1141 43.5097 22.4211 43.116 23.657C42.7222 24.893 41.973 25.9922 40.9668 26.807C39.9605 27.6 38.7355 28.1141 37.4449 28.2289C36.1543 28.3711 34.8582 28.1141 33.7152 27.507C32.5722 26.9 31.6316 25.9648 31.0082 24.8219H31.0027ZM50.0777 37.9359C49.405 35.7867 48.0871 33.7578 46.7527 31.9148C45.6863 30.4219 43.8925 29.957 42.0386 29.957C38.6152 29.957 35.1972 29.9789 31.7738 29.957C29.2855 29.9352 27.3769 30.9852 25.9168 32.943C24.6425 34.6328 23.8769 36.5359 23.3519 38.532C21.4871 44.4602 21.9574 49.9508 22.3949 56.0648C22.4441 56.7156 23.1715 57.5578 23.7949 57.9078C25.4519 58.7719 27.0105 57.3937 27.0105 55.25C26.9886 51.8648 26.8683 48.4141 27.0925 45.007C27.1855 43.5359 27.3933 41.9828 27.6941 40.5172C27.7105 40.4516 27.7215 40.3859 27.7324 40.3203C27.9347 39.4344 28.2519 38.5922 28.5144 37.7281L28.8972 37.7773V39.3852C28.8972 53.0844 28.93 66.7781 28.8644 80.45C28.8644 82.6922 29.6136 84.2289 31.7465 85H33.305C35.3886 84.1852 36.1707 82.643 36.1488 80.4008C36.0668 72.4219 36.116 64.4648 36.116 56.4859V54.8781C37.6363 54.4133 37.5816 55.2992 37.5816 56.1852C37.5816 64.2133 37.6363 72.2414 37.5379 80.2422C37.5105 82.457 38.1613 84.0211 40.1519 85H42.0441C44.1988 84.1141 44.8824 82.457 44.8715 80.193C44.8113 66.5648 44.8386 52.9148 44.8386 39.2922V37.8211L45.4019 37.7281C45.8394 40.1781 46.4902 42.6062 46.6433 45.0562C46.8675 48.4633 46.7418 51.9141 46.7254 55.2992C46.7254 57.443 48.2785 58.8211 49.941 57.957C50.5644 57.607 51.2918 56.7648 51.341 56.1141C51.773 50 51.959 43.8641 50.0941 37.9359H50.0777Z"
                  fill="white" />
                <path
                  d="M70.2242 69.928H56.9352V56.6389H70.2242V69.928ZM62.5898 71.7108H49.3008V84.9999H62.5898V71.7108ZM77.8641 71.7108H64.575V84.9999H77.8641V71.7108Z"
                  fill="white" />
              </svg>